<?xml version="1.0" encoding="iso-8859-1"?>
<!-- Generator: Adobe Illustrator 13.0.0, SVG Export Plug-In . SVG Version: 6.00 Build 14948)  -->
<!DOCTYPE svg PUBLIC "-//W3C//DTD SVG 1.1//EN" "http://www.w3.org/Graphics/SVG/1.1/DTD/svg11.dtd">
<svg version="1.1" id="Layer_1" xmlns="http://www.w3.org/2000/svg" xmlns:xlink="http://www.w3.org/1999/xlink" x="0px" y="0px"
	 width="353.982px" height="377.982px" viewBox="0 0 353.982 377.982" style="enable-background:new 0 0 353.982 377.982;"
	 xml:space="preserve">
<g>
	
		<line style="fill:none;stroke:#5C9D4A;stroke-width:20;stroke-linecap:round;stroke-linejoin:round;" x1="193.905" y1="71.149" x2="280.24" y2="132.104"/>
	
		<line style="fill:none;stroke:#5C9D4A;stroke-width:20;stroke-linecap:round;stroke-linejoin:round;" x1="162.116" y1="70.792" x2="76.491" y2="130.979"/>
	
		<line style="fill:none;stroke:#5C9D4A;stroke-width:20;stroke-linejoin:round;" x1="60.156" y1="159.964" x2="60.156" y2="305.061"/>
	
		<line style="fill:none;stroke:#5C9D4A;stroke-width:20;stroke-linejoin:round;" x1="295.324" y1="157.656" x2="295.324" y2="302.754"/>
	
		<line style="fill:none;stroke:#5C9D4A;stroke-width:20;stroke-linejoin:round;" x1="280.944" y1="319.854" x2="76.757" y2="319.854"/>
	<g>
		<polygon style="fill:none;stroke:#5C9D4A;stroke-width:14;stroke-linecap:round;stroke-linejoin:round;" points="177.053,124.632 
			109.79,166.29 109.79,237.178 176.885,285.51 244.36,237.178 244.36,166.288 		"/>
		<polyline style="fill:none;stroke:#5C9D4A;stroke-width:14;stroke-linecap:round;stroke-linejoin:round;" points="
			110.718,165.907 177.053,207.259 243.05,166.829 		"/>
		
			<line style="fill:none;stroke:#5C9D4A;stroke-width:14;stroke-linecap:round;stroke-linejoin:round;" x1="176.885" y1="285.51" x2="176.885" y2="207.259"/>
	</g>
	<g>
		<g>
			<path style="fill:#5C9D4A;" d="M59.796,121.216c-12,0-21.727,9.727-21.727,21.729c0,11.998,9.727,21.727,21.727,21.727
				s21.729-9.729,21.729-21.727C81.524,130.942,71.796,121.216,59.796,121.216z M59.288,152.596c-5.176,0-9.373-4.197-9.373-9.373
				c0-5.178,4.197-9.375,9.373-9.375s9.373,4.197,9.373,9.375C68.661,148.399,64.464,152.596,59.288,152.596z"/>
		</g>
	</g>
	<g>
		<g>
			<path style="fill:#5C9D4A;" d="M295.495,121.579c-12,0-21.727,9.727-21.727,21.727s9.727,21.729,21.727,21.729
				c12.002,0,21.73-9.729,21.73-21.729S307.497,121.579,295.495,121.579z M296.169,152.596c-5.176,0-9.373-4.197-9.373-9.373
				c0-5.178,4.197-9.375,9.373-9.375s9.373,4.197,9.373,9.375C305.542,148.399,301.344,152.596,296.169,152.596z"/>
		</g>
	</g>
	<g>
		<g>
			<path style="fill:#5C9D4A;" d="M59.796,298.128c-12,0-21.727,9.725-21.727,21.727c0,11.998,9.727,21.729,21.727,21.729
				s21.729-9.73,21.729-21.729C81.524,307.852,71.796,298.128,59.796,298.128z M60.553,329.434c-5.178,0-9.375-4.197-9.375-9.373
				c0-5.178,4.197-9.373,9.375-9.373c5.176,0,9.373,4.195,9.373,9.373C69.927,325.237,65.729,329.434,60.553,329.434z"/>
		</g>
	</g>
	<g>
		<g>
			<path style="fill:#5C9D4A;" d="M295.495,298.262c-12,0-21.727,9.727-21.727,21.729c0,11.998,9.727,21.727,21.727,21.727
				c12.002,0,21.73-9.729,21.73-21.727C317.225,307.989,307.497,298.262,295.495,298.262z M296.169,329.434
				c-5.176,0-9.373-4.197-9.373-9.373c0-5.178,4.197-9.373,9.373-9.373s9.373,4.195,9.373,9.373
				C305.542,325.237,301.344,329.434,296.169,329.434z"/>
		</g>
	</g>
	<g>
		<g>
			<path style="fill:#5C9D4A;" d="M177.848,36.544c-12.001,0-21.728,9.727-21.728,21.729c0,11.998,9.727,21.729,21.728,21.729
				c12,0,21.729-9.73,21.729-21.729C199.577,46.27,189.848,36.544,177.848,36.544z M177.341,67.925
				c-5.176,0-9.373-4.197-9.373-9.373c0-5.178,4.197-9.373,9.373-9.373s9.373,4.195,9.373,9.373
				C186.714,63.727,182.516,67.925,177.341,67.925z"/>
		</g>
	</g>
</g>
</svg>
